<?xml version="1.0" encoding="UTF-8"?>
<!-- Generator: Adobe Illustrator 15.1.0, SVG Export Plug-In . SVG Version: 6.00 Build 0)  -->
<!DOCTYPE svg PUBLIC "-//W3C//DTD SVG 1.1//EN" "http://www.w3.org/Graphics/SVG/1.1/DTD/svg11.dtd">
<svg version="1.1" id="Layer_1" xmlns="http://www.w3.org/2000/svg" xmlns:xlink="http://www.w3.org/1999/xlink" x="0px" y="0px" width="134.904px" height="40px" viewBox="0 0 134.904 40" enable-background="new 0 0 134.904 40" xml:space="preserve">
<g>
	<path fill="#0199C6" d="M124.754,6.051c-4.199,0-7.523,0.699-9.887,1.749v19.38c0,0.74,0.281,1.479,0.848,2.044   c0.562,0.563,1.303,0.845,2.041,0.845h3.936V10.774c0.789-0.261,1.531-0.48,2.889-0.48c2.756,0,3.5,1.618,3.5,3.28v16.494h4.209   c0.668,0,1.338-0.256,1.85-0.766c0.512-0.512,0.766-1.179,0.766-1.85V13.531C134.904,9.244,132.236,6.051,124.754,6.051z    M100.055,6.051c-6.779,0-10.631,4.768-10.631,12.162c0,7.525,4.158,12.293,11.377,12.293c3.98,0,5.799-0.68,7.174-1.614   c2.418-1.642,1.869-5.867-1.119-4.198c-1.27,0.656-2.514,1.132-5.268,1.132c-8.453,0-7.877-15.75-1.795-15.75   c2.494,0,3.895,1.837,3.895,6.037l-5.146,0.766c-2.338,0.224-1.914,3.627,0,3.407l10.768-1.533c0.4-0.057,0.736-0.43,0.74-0.833   C110.121,10.405,106.67,6.051,100.055,6.051z M64.619,18.87c0,7.042,4.07,11.375,9.713,11.375c0.16,0,0.311-0.006,0.463-0.011   c2.127,0.07,2.992-3.074,0-4.056c-2.416-0.645-3.438-3.15-3.438-7.703c0-5.644,1.443-8.487,4.943-8.487   c0.918,0,1.619,0.131,2.145,0.394v20.431c0,2.712-1.314,4.418-4.9,4.418c-2.232,0-2.408,4.77,1.225,4.77   c6.035,0,10.324-3.062,10.324-9.756V7.8c-1.662-1.005-4.725-1.749-8.355-1.749C68.645,6.051,64.619,10.994,64.619,18.87z    M65.191,35.106c-0.957,1.072-0.865,2.722,0.209,3.681c1.076,0.958,2.725,0.865,3.684-0.209c0.959-1.075,0.863-2.723-0.211-3.682   S66.15,34.031,65.191,35.106z"/>
	<path fill="#7BC043" d="M9.887,6.051C5.688,6.051,2.361,6.75,0,7.8v19.38c0,0.74,0.281,1.479,0.846,2.044   c0.564,0.563,1.303,0.845,2.043,0.845h3.936V10.774c0.787-0.261,1.531-0.48,2.887-0.48c2.758,0,3.5,1.618,3.5,3.28v16.494h4.211   c0.668,0,1.338-0.256,1.85-0.766c0.51-0.512,0.764-1.179,0.764-1.85V13.531C20.035,9.244,17.367,6.051,9.887,6.051z M57.91,23.07   V10.907h0.092c0.906,0,1.811-0.347,2.504-1.038c0.689-0.692,1.037-1.597,1.037-2.503V6.488H57.91v-5.47   c0-0.304-0.135-0.603-0.393-0.804s-0.582-0.257-0.877-0.182l-0.621,0.16c-1.363,0.351-2.627,1.136-3.555,2.334   c-0.916,1.18-1.36,2.574-1.374,3.962h0.159c-0.054,0-0.106,0.012-0.16,0.015c0,0.016-0.004,0.032-0.004,0.048V6.503   c-0.647,0.039-1.284,0.294-1.777,0.788c-0.535,0.536-0.805,1.238-0.805,1.94v1.676h2.582v11.896c0,3.9,1.18,5.771,2.533,7.232   c3.365,3.631,7.195,1.744,5.148-2.275C57.955,26.168,57.91,24.215,57.91,23.07z M51.091,6.488h-0.005v0.016   c0.001,0,0.002,0,0.004,0C51.09,6.498,51.091,6.493,51.091,6.488z M35.502,6.051c-6.781,0-10.631,4.768-10.631,12.162   c0,7.525,4.156,12.293,11.375,12.293c3.982,0,5.799-0.68,7.176-1.614c2.416-1.642,1.869-5.867-1.121-4.198   c-1.268,0.656-2.51,1.132-5.266,1.132c-8.455,0-7.877-15.75-1.795-15.75c2.494,0,3.895,1.837,3.895,6.037l-5.146,0.766   c-2.34,0.224-1.914,3.627,0,3.407l10.768-1.533c0.398-0.057,0.736-0.43,0.74-0.833C45.566,10.405,42.117,6.051,35.502,6.051z    M62.668,32.828c-0.785-0.701-1.99-0.633-2.691,0.152c-0.701,0.786-0.633,1.992,0.152,2.692c0.787,0.702,1.992,0.634,2.693-0.153   C63.523,34.734,63.455,33.529,62.668,32.828z"/>
</g>
</svg>